<mxfile host="app.diagrams.net" modified="2021-07-01T05:40:49.608Z" agent="5.0 (Windows)" etag="GXI9shzNkY7RfNjrGDED" version="14.8.3" type="github">
  <diagram id="WDK9dK2jWwXNn-3XpzYa" name="Test Solution for Automated Content Validation">
    <mxGraphModel dx="1038" dy="564" grid="1" gridSize="10" guides="1" tooltips="1" connect="1" arrows="1" fold="1" page="1" pageScale="1" pageWidth="827" pageHeight="1169" math="0" shadow="0">
      <root>
        <mxCell id="0" />
        <mxCell id="1" parent="0" />
        <mxCell id="Qg84HXbCcPQFyjWx6wx6-21" value="" style="rounded=0;whiteSpace=wrap;html=1;" parent="1" vertex="1">
          <mxGeometry x="70" y="100" width="370" height="210" as="geometry" />
        </mxCell>
        <mxCell id="Qg84HXbCcPQFyjWx6wx6-5" value="Document pair" style="edgeStyle=orthogonalEdgeStyle;rounded=0;orthogonalLoop=1;jettySize=auto;html=1;" parent="1" source="Qg84HXbCcPQFyjWx6wx6-1" target="Qg84HXbCcPQFyjWx6wx6-2" edge="1">
          <mxGeometry relative="1" as="geometry" />
        </mxCell>
        <mxCell id="Qg84HXbCcPQFyjWx6wx6-1" value="SmPC.V1" style="shape=document;whiteSpace=wrap;html=1;boundedLbl=1;" parent="1" vertex="1">
          <mxGeometry x="80" y="110" width="120" height="80" as="geometry" />
        </mxCell>
        <mxCell id="Qg84HXbCcPQFyjWx6wx6-2" value="PIL.V1" style="shape=document;whiteSpace=wrap;html=1;boundedLbl=1;" parent="1" vertex="1">
          <mxGeometry x="310" y="110" width="120" height="80" as="geometry" />
        </mxCell>
        <mxCell id="Qg84HXbCcPQFyjWx6wx6-77" style="edgeStyle=orthogonalEdgeStyle;rounded=0;orthogonalLoop=1;jettySize=auto;html=1;entryX=1.05;entryY=0.526;entryDx=0;entryDy=0;entryPerimeter=0;" parent="1" source="Qg84HXbCcPQFyjWx6wx6-3" target="Qg84HXbCcPQFyjWx6wx6-71" edge="1">
          <mxGeometry relative="1" as="geometry">
            <Array as="points">
              <mxPoint x="970" y="533" />
            </Array>
          </mxGeometry>
        </mxCell>
        <mxCell id="Qg84HXbCcPQFyjWx6wx6-3" value="Ground Truth PIL.V2" style="shape=document;whiteSpace=wrap;html=1;boundedLbl=1;" parent="1" vertex="1">
          <mxGeometry x="910" y="220" width="120" height="80" as="geometry" />
        </mxCell>
        <mxCell id="Qg84HXbCcPQFyjWx6wx6-6" value="Document Pair" style="edgeStyle=orthogonalEdgeStyle;rounded=0;orthogonalLoop=1;jettySize=auto;html=1;entryX=0;entryY=0.5;entryDx=0;entryDy=0;entryPerimeter=0;" parent="1" source="Qg84HXbCcPQFyjWx6wx6-4" target="Qg84HXbCcPQFyjWx6wx6-7" edge="1">
          <mxGeometry relative="1" as="geometry">
            <mxPoint x="440" y="260" as="targetPoint" />
          </mxGeometry>
        </mxCell>
        <mxCell id="Qg84HXbCcPQFyjWx6wx6-16" style="edgeStyle=orthogonalEdgeStyle;rounded=0;orthogonalLoop=1;jettySize=auto;html=1;entryX=0;entryY=0.5;entryDx=0;entryDy=0;" parent="1" source="Qg84HXbCcPQFyjWx6wx6-4" target="Qg84HXbCcPQFyjWx6wx6-13" edge="1">
          <mxGeometry relative="1" as="geometry" />
        </mxCell>
        <mxCell id="Qg84HXbCcPQFyjWx6wx6-4" value="SmPC.V2" style="shape=document;whiteSpace=wrap;html=1;boundedLbl=1;" parent="1" vertex="1">
          <mxGeometry x="80" y="220" width="120" height="80" as="geometry" />
        </mxCell>
        <mxCell id="Qg84HXbCcPQFyjWx6wx6-11" value="Generated must match GT&lt;br&gt;Generated PIL is flagged as &lt;br&gt;matched / pass&amp;nbsp;" style="edgeStyle=orthogonalEdgeStyle;rounded=0;orthogonalLoop=1;jettySize=auto;html=1;startArrow=classic;startFill=1;shadow=1;dashed=1;dashPattern=1 2;jumpStyle=none;endSize=10;startSize=11;strokeWidth=3;exitX=0.5;exitY=0;exitDx=0;exitDy=0;entryX=0.5;entryY=0;entryDx=0;entryDy=0;" parent="1" source="Qg84HXbCcPQFyjWx6wx6-7" target="Qg84HXbCcPQFyjWx6wx6-3" edge="1">
          <mxGeometry x="-0.0181" y="-41" relative="1" as="geometry">
            <mxPoint x="1000" y="180" as="targetPoint" />
            <Array as="points">
              <mxPoint x="600" y="129" />
              <mxPoint x="970" y="129" />
            </Array>
            <mxPoint as="offset" />
          </mxGeometry>
        </mxCell>
        <mxCell id="Qg84HXbCcPQFyjWx6wx6-7" value="PIL.V2 &lt;br&gt;(generated)" style="shape=document;whiteSpace=wrap;html=1;boundedLbl=1;dashed=1;dashPattern=1 1;" parent="1" vertex="1">
          <mxGeometry x="540" y="220" width="120" height="80" as="geometry" />
        </mxCell>
        <mxCell id="Qg84HXbCcPQFyjWx6wx6-53" style="edgeStyle=orthogonalEdgeStyle;rounded=0;orthogonalLoop=1;jettySize=auto;html=1;" parent="1" source="Qg84HXbCcPQFyjWx6wx6-9" target="Qg84HXbCcPQFyjWx6wx6-35" edge="1">
          <mxGeometry relative="1" as="geometry">
            <Array as="points">
              <mxPoint x="370" y="440" />
              <mxPoint x="370" y="440" />
            </Array>
          </mxGeometry>
        </mxCell>
        <mxCell id="Qg84HXbCcPQFyjWx6wx6-9" value="Generated PIL (V2.R)&lt;br&gt;contains ML recommendations" style="shape=document;whiteSpace=wrap;html=1;boundedLbl=1;" parent="1" vertex="1">
          <mxGeometry x="320" y="340" width="120" height="80" as="geometry" />
        </mxCell>
        <mxCell id="Qg84HXbCcPQFyjWx6wx6-75" style="edgeStyle=orthogonalEdgeStyle;rounded=0;orthogonalLoop=1;jettySize=auto;html=1;entryX=0.17;entryY=0.526;entryDx=0;entryDy=0;entryPerimeter=0;exitX=0.567;exitY=0.838;exitDx=0;exitDy=0;exitPerimeter=0;" parent="1" source="Qg84HXbCcPQFyjWx6wx6-10" target="Qg84HXbCcPQFyjWx6wx6-69" edge="1">
          <mxGeometry relative="1" as="geometry">
            <Array as="points">
              <mxPoint x="608" y="533" />
            </Array>
          </mxGeometry>
        </mxCell>
        <mxCell id="Qg84HXbCcPQFyjWx6wx6-10" value="Draft PiL.(V2.Test)" style="shape=document;whiteSpace=wrap;html=1;boundedLbl=1;" parent="1" vertex="1">
          <mxGeometry x="540" y="340" width="120" height="80" as="geometry" />
        </mxCell>
        <mxCell id="Qg84HXbCcPQFyjWx6wx6-17" style="edgeStyle=orthogonalEdgeStyle;rounded=0;orthogonalLoop=1;jettySize=auto;html=1;entryX=0;entryY=0.5;entryDx=0;entryDy=0;" parent="1" source="Qg84HXbCcPQFyjWx6wx6-13" target="Qg84HXbCcPQFyjWx6wx6-9" edge="1">
          <mxGeometry relative="1" as="geometry" />
        </mxCell>
        <mxCell id="Qg84HXbCcPQFyjWx6wx6-13" value="Convert/Parse/Map/&lt;br&gt;Contextualise" style="shape=process;whiteSpace=wrap;html=1;backgroundOutline=1;fillColor=#1ba1e2;strokeColor=#006EAF;fontColor=#ffffff;" parent="1" vertex="1">
          <mxGeometry x="100" y="350" width="170" height="60" as="geometry" />
        </mxCell>
        <mxCell id="Qg84HXbCcPQFyjWx6wx6-34" value="Actor" style="shape=umlActor;verticalLabelPosition=bottom;verticalAlign=top;html=1;outlineConnect=0;dashed=1;dashPattern=1 1;" parent="1" vertex="1">
          <mxGeometry x="40" y="500" width="30" height="60" as="geometry" />
        </mxCell>
        <mxCell id="Qg84HXbCcPQFyjWx6wx6-35" value="Recommendation Validation process" style="swimlane;childLayout=stackLayout;horizontal=1;fillColor=none;horizontalStack=1;resizeParent=1;resizeParentMax=0;resizeLast=0;collapsible=0;strokeColor=none;stackBorder=10;stackSpacing=-12;resizable=1;align=center;points=[];fontColor=#000000;dashed=1;dashPattern=1 1;" parent="1" vertex="1">
          <mxGeometry x="222" y="470" width="296" height="100" as="geometry" />
        </mxCell>
        <mxCell id="Qg84HXbCcPQFyjWx6wx6-36" value="Accept&#xa;Green Text" style="shape=step;perimeter=stepPerimeter;fixedSize=1;points=[];fillColor=#d5e8d4;strokeColor=#82b366;" parent="Qg84HXbCcPQFyjWx6wx6-35" vertex="1">
          <mxGeometry x="10" y="33" width="100" height="57" as="geometry" />
        </mxCell>
        <mxCell id="Qg84HXbCcPQFyjWx6wx6-37" value="AcceptÂ &#xa;Blue Text" style="shape=step;perimeter=stepPerimeter;fixedSize=1;points=[];fillColor=#dae8fc;strokeColor=#6c8ebf;" parent="Qg84HXbCcPQFyjWx6wx6-35" vertex="1">
          <mxGeometry x="98" y="33" width="100" height="57" as="geometry" />
        </mxCell>
        <mxCell id="Qg84HXbCcPQFyjWx6wx6-38" value="Delete&#xa;Red Text" style="shape=step;perimeter=stepPerimeter;fixedSize=1;points=[];fillColor=#f8cecc;strokeColor=#b85450;" parent="Qg84HXbCcPQFyjWx6wx6-35" vertex="1">
          <mxGeometry x="186" y="33" width="100" height="57" as="geometry" />
        </mxCell>
        <mxCell id="Qg84HXbCcPQFyjWx6wx6-48" style="edgeStyle=orthogonalEdgeStyle;rounded=0;orthogonalLoop=1;jettySize=auto;html=1;entryX=0;entryY=0.5;entryDx=0;entryDy=0;" parent="1" source="Qg84HXbCcPQFyjWx6wx6-40" target="Qg84HXbCcPQFyjWx6wx6-10" edge="1">
          <mxGeometry relative="1" as="geometry">
            <Array as="points">
              <mxPoint x="363" y="690" />
              <mxPoint x="520" y="690" />
              <mxPoint x="520" y="380" />
            </Array>
          </mxGeometry>
        </mxCell>
        <mxCell id="Qg84HXbCcPQFyjWx6wx6-40" value="" style="verticalLabelPosition=bottom;aspect=fixed;html=1;verticalAlign=top;strokeColor=#000000;fillColor=#000000;align=center;outlineConnect=0;shape=mxgraph.fluid_power.x12100;points=[[0,0.365,0],[1,0.365,0],[0.5,1,0]];rotation=-180;" parent="1" vertex="1">
          <mxGeometry x="317.58000000000004" y="560" width="90.42" height="71.26" as="geometry" />
        </mxCell>
        <mxCell id="Qg84HXbCcPQFyjWx6wx6-44" style="edgeStyle=orthogonalEdgeStyle;rounded=0;orthogonalLoop=1;jettySize=auto;html=1;exitX=0.44;exitY=1;exitDx=0;exitDy=0;exitPerimeter=0;entryX=1;entryY=0.365;entryDx=0;entryDy=0;entryPerimeter=0;" parent="1" source="Qg84HXbCcPQFyjWx6wx6-36" target="Qg84HXbCcPQFyjWx6wx6-40" edge="1">
          <mxGeometry relative="1" as="geometry">
            <mxPoint x="706" y="521.0260000000001" as="sourcePoint" />
            <mxPoint x="705.2051278545057" y="595.0000000000002" as="targetPoint" />
          </mxGeometry>
        </mxCell>
        <mxCell id="Qg84HXbCcPQFyjWx6wx6-45" style="edgeStyle=orthogonalEdgeStyle;rounded=0;orthogonalLoop=1;jettySize=auto;html=1;exitX=0.49;exitY=1;exitDx=0;exitDy=0;exitPerimeter=0;entryX=0;entryY=0.365;entryDx=0;entryDy=0;entryPerimeter=0;" parent="1" source="Qg84HXbCcPQFyjWx6wx6-38" target="Qg84HXbCcPQFyjWx6wx6-40" edge="1">
          <mxGeometry relative="1" as="geometry">
            <mxPoint x="618" y="520" as="sourcePoint" />
            <mxPoint x="660" y="640.2501000000002" as="targetPoint" />
          </mxGeometry>
        </mxCell>
        <mxCell id="Qg84HXbCcPQFyjWx6wx6-68" value="Document validationÂ &#xa;and text matching process" style="swimlane;childLayout=stackLayout;horizontal=1;fillColor=none;horizontalStack=1;resizeParent=1;resizeParentMax=0;resizeLast=0;collapsible=0;strokeColor=none;stackBorder=10;stackSpacing=-12;resizable=1;align=center;points=[];fontColor=#000000;dashed=1;dashPattern=1 1;verticalAlign=top;labelPosition=center;verticalLabelPosition=bottom;" parent="1" vertex="1">
          <mxGeometry x="640" y="470" width="296" height="100" as="geometry" />
        </mxCell>
        <mxCell id="Qg84HXbCcPQFyjWx6wx6-69" value="Document &#xa;compare" style="shape=step;perimeter=stepPerimeter;fixedSize=1;points=[];fillColor=#fff2cc;strokeColor=#d6b656;gradientColor=#ffd966;" parent="Qg84HXbCcPQFyjWx6wx6-68" vertex="1">
          <mxGeometry x="10" y="33" width="100" height="57" as="geometry" />
        </mxCell>
        <mxCell id="Qg84HXbCcPQFyjWx6wx6-70" value="Highlight &#xa;search" style="shape=step;perimeter=stepPerimeter;fixedSize=1;points=[];gradientColor=#ffd966;fillColor=#fff2cc;strokeColor=#d6b656;" parent="Qg84HXbCcPQFyjWx6wx6-68" vertex="1">
          <mxGeometry x="98" y="33" width="100" height="57" as="geometry" />
        </mxCell>
        <mxCell id="Qg84HXbCcPQFyjWx6wx6-71" value="Apply &#xa;match %" style="shape=step;perimeter=stepPerimeter;fixedSize=1;points=[];gradientColor=#ffd966;fillColor=#fff2cc;strokeColor=#d6b656;" parent="Qg84HXbCcPQFyjWx6wx6-68" vertex="1">
          <mxGeometry x="186" y="33" width="100" height="57" as="geometry" />
        </mxCell>
        <mxCell id="Qg84HXbCcPQFyjWx6wx6-78" style="edgeStyle=orthogonalEdgeStyle;rounded=0;orthogonalLoop=1;jettySize=auto;html=1;entryX=1;entryY=0.388;entryDx=0;entryDy=0;entryPerimeter=0;" parent="1" source="Qg84HXbCcPQFyjWx6wx6-72" target="Qg84HXbCcPQFyjWx6wx6-7" edge="1">
          <mxGeometry relative="1" as="geometry">
            <Array as="points">
              <mxPoint x="788" y="251" />
            </Array>
          </mxGeometry>
        </mxCell>
        <mxCell id="Qg84HXbCcPQFyjWx6wx6-72" value="" style="verticalLabelPosition=bottom;aspect=fixed;html=1;verticalAlign=top;align=center;outlineConnect=0;shape=mxgraph.fluid_power.x12100;points=[[0,0.365,0],[1,0.365,0],[0.5,1,0]];rotation=0;" parent="1" vertex="1">
          <mxGeometry x="742.79" y="430" width="90.42" height="71.26" as="geometry" />
        </mxCell>
        <mxCell id="Qg84HXbCcPQFyjWx6wx6-73" style="edgeStyle=orthogonalEdgeStyle;rounded=0;orthogonalLoop=1;jettySize=auto;html=1;entryX=0;entryY=0.365;entryDx=0;entryDy=0;entryPerimeter=0;" parent="1" source="Qg84HXbCcPQFyjWx6wx6-69" target="Qg84HXbCcPQFyjWx6wx6-72" edge="1">
          <mxGeometry relative="1" as="geometry" />
        </mxCell>
        <mxCell id="Qg84HXbCcPQFyjWx6wx6-74" style="edgeStyle=orthogonalEdgeStyle;rounded=0;orthogonalLoop=1;jettySize=auto;html=1;entryX=1;entryY=0.365;entryDx=0;entryDy=0;entryPerimeter=0;" parent="1" source="Qg84HXbCcPQFyjWx6wx6-71" target="Qg84HXbCcPQFyjWx6wx6-72" edge="1">
          <mxGeometry relative="1" as="geometry" />
        </mxCell>
      </root>
    </mxGraphModel>
  </diagram>
</mxfile>
